<svg viewBox="42.329927000000005 42.292283625730995 358.277011 68.45245906432748" xmlns="http://www.w3.org/2000/svg" id="content" style="max-height: 500px" width="358.277011" height="68.45245906432748"><g><path fill="#fff" d="m252.457,72.48h-5.646l-7.404-22.777h5.165l5.068,16.011h.06l5.14-16.011h5.165l-7.56,22.777h.012Z"/><path fill="#fff" d="m261.486,49.703h17.034v4.213h-12.026v4.876h11.039v3.888h-11.039v5.586h12.279v4.213h-17.287v-22.777h0Z"/><path fill="#fff" d="m281.674,49.703h4.972l9.51,15.277h.06v-15.277h4.695v22.777h-5.008l-9.474-15.253h-.06v15.253h-4.695v-22.777h0Z"/><path fill="#fff" d="m309.881,53.917h-6.826v-4.213h18.66v4.213h-6.826v18.563h-5.008v-18.563h0Z"/><path fill="#fff" d="m343.179,63.872c0,3.082-.867,5.381-2.588,6.886s-4.105,2.263-7.151,2.263-5.465-.746-7.163-2.251c-1.685-1.505-2.54-3.804-2.54-6.91v-14.169h5.008v14.169c0,.614.048,1.228.157,1.818.108.59.325,1.132.674,1.601.337.47.819.843,1.421,1.12s1.421.409,2.444.409c1.782,0,3.022-.397,3.696-1.192.686-.795,1.023-2.047,1.023-3.744v-14.169h5.008v14.169h.012Z"/><path fill="#fff" d="m347.007,49.703h12.279c1.023,0,1.938.169,2.757.494.819.325,1.517.783,2.107,1.36.59.578,1.035,1.24,1.336,2.01.313.77.457,1.577.457,2.42,0,1.336-.277,2.504-.843,3.479-.566.975-1.481,1.722-2.757,2.227v.06c.614.169,1.132.433,1.529.783s.734.77.987,1.264c.253.494.445,1.011.554,1.577.12.566.193,1.132.241,1.709.024.361.048.783.06,1.276.024.494.06.987.108,1.481s.144.987.253,1.457c.12.47.289.867.53,1.18h-5.008c-.144-.361-.265-.758-.337-1.192s-.144-.891-.193-1.372-.096-.963-.132-1.469c-.036-.506-.084-.975-.144-1.421-.169-1.192-.53-2.059-1.083-2.612-.554-.554-1.457-.831-2.709-.831h-5.008v8.896h-5.008v-22.777h.024Zm5.008,10.305h5.49c1.132,0,1.986-.253,2.564-.77.59-.506.879-1.336.879-2.492s-.289-1.914-.879-2.408c-.59-.494-1.445-.746-2.564-.746h-5.49v6.417Z"/><path fill="#fff" d="m369.423,49.703h17.034v4.213h-12.026v4.876h11.039v3.888h-11.039v5.586h12.279v4.213h-17.287v-22.777h0Z"/></g><g><path fill="#fff" d="m309.881,76.645h5.008v18.563h11.099v4.213h-16.108v-22.777Z"/><path fill="#fff" d="m335.294,76.537h5.14l8.523,22.777h-5.201l-1.721-5.068h-8.523l-1.782,5.068h-5.068l8.644-22.777h-.012Zm-.482,13.977h5.899l-2.865-8.355h-.06l-2.961,8.355h-.012Z"/><path fill="#fff" d="m350.077,76.645h10.714c1.083,0,2.071.096,2.961.289s1.661.506,2.299.939,1.132,1.011,1.481,1.734c.349.722.53,1.613.53,2.685,0,1.132-.265,2.083-.795,2.853s-1.3,1.409-2.299,1.902c1.409.409,2.456,1.108,3.142,2.119.686,1.011,1.035,2.227,1.035,3.648,0,1.144-.229,2.143-.674,2.986-.445.843-1.047,1.529-1.806,2.059s-1.613.927-2.588,1.18c-.963.253-1.962.385-2.986.385h-11.039v-22.777h.024Zm5.008,9.221h5.068c.891,0,1.625-.217,2.203-.638.578-.421.855-1.12.855-2.071,0-.53-.096-.963-.289-1.312-.193-.337-.445-.602-.77-.795s-.686-.325-1.096-.397-.843-.108-1.288-.108h-4.695v5.321h.012Zm0,9.667h5.357c.494,0,.951-.048,1.409-.144.445-.096.843-.253,1.18-.482s.614-.53.819-.915c.205-.385.301-.867.301-1.469,0-1.168-.325-2.01-.987-2.504s-1.529-.746-2.612-.746h-5.453v6.248l-.012.012Z"/><path fill="#fff" d="m374.443,91.862c0,.77.132,1.409.409,1.95.277.53.638.963,1.096,1.288s.987.578,1.601.734c.602.156,1.252.241,1.926.241.445,0,.927-.036,1.433-.108s.987-.217,1.433-.433.819-.506,1.12-.879c.301-.373.445-.843.445-1.421,0-.614-.193-1.12-.59-1.505s-.903-.71-1.553-.975-1.36-.494-2.167-.674c-.807-.181-1.625-.385-2.456-.626-.855-.217-1.685-.47-2.492-.783s-1.529-.71-2.167-1.192c-.638-.494-1.156-1.096-1.553-1.818-.397-.722-.59-1.613-.59-2.685,0-1.168.253-2.191.746-3.046.506-.867,1.156-1.577,1.962-2.155s1.721-.999,2.745-1.276,2.047-.409,3.058-.409c1.192,0,2.335.132,3.431.397s2.071.698,2.913,1.288c.855.602,1.529,1.36,2.022,2.275.494.915.746,2.047.746,3.371h-4.852c-.048-.686-.193-1.24-.433-1.685-.241-.445-.566-.795-.975-1.059-.409-.253-.867-.433-1.409-.542-.53-.108-1.096-.156-1.685-.156-.409,0-.807.048-1.216.132s-.77.229-1.096.445-.602.482-.819.819c-.217.325-.325.734-.325,1.192s.084.807.253,1.083.506.53.999.746,1.192.457,2.071.698c.879.241,2.035.554,3.467.903.277.06.638.156,1.083.277s.915.277,1.421.482c.506.205.999.457,1.505.783.506.313.951.71,1.372,1.18.409.47.746,1.023.999,1.673s.385,1.396.385,2.251c0,1.047-.205,2.01-.602,2.901-.397.891-.999,1.661-1.806,2.311-.795.65-1.782,1.156-2.961,1.529-1.18.373-2.552.554-4.105.554-1.252,0-2.468-.156-3.648-.482-1.18-.325-2.215-.807-3.106-1.469s-1.613-1.505-2.155-2.516c-.542-1.023-.807-2.239-.782-3.636h4.852l.048.024Z"/></g><g id="Page-1"><g id="_2015_Logo_TUM_RGB"><path fill-rule="evenodd" fill="#fff" d="m178.252,49.703h-4.466v40.798h-10.197v-40.798h-36.97v8.921h8.921v40.798h8.921v-40.798h10.197v40.798h28.05v-40.798h10.197v40.798h8.921v-40.798h10.197v40.798h8.921v-49.719h-42.713.024Z" id="Rectangle-1"/></g></g><path fill="#fff" d="m108.75,99.422v-49.719h1.324v49.719h-1.324Z"/><g><path fill="#fff" d="m62.026,79.761v-29.489h-12.361v29.489c-.047,2.861.447,5.709,1.471,8.393.906,2.343,2.319,4.45,4.12,6.192,1.86,1.742,4.085,3.061,6.498,3.861,2.755.918,5.639,1.366,8.535,1.33v-11.313c-2.437-.012-4.414-.753-5.945-2.19-1.53-1.436-2.296-3.532-2.319-6.263v-.012Z"/><polygon fill="#fff" points="90.879 50.261 78.542 50.261 78.542 78.09 90.914 78.09 90.879 50.261"/><path fill="#fff" d="m89.419,88.261c-.906-2.343-2.319-4.45-4.12-6.192-1.86-1.742-4.085-3.061-6.498-3.861-2.755-.918-5.639-1.366-8.535-1.33v11.336c2.437,0,4.426.73,5.945,2.19,1.519,1.46,2.296,3.555,2.307,6.263v2.213h12.372v-2.213c.059-2.872-.424-5.721-1.436-8.405h-.035Z"/></g></svg>